Coordinates
version=1
nRows=11
nColumns=63
inDegrees=yes

Units are S.I. units (second, meters, Newtons, ...)
If the header above contains a line with 'inDegrees', this indicates whether rotational values are in degrees (yes) or radians (no).

endheader
time	pelvis_tilt	pelvis_list	pelvis_rotation	pelvis_tx	pelvis_ty	pelvis_tz	hip_flexion_r	hip_adduction_r	hip_rotation_r	knee_angle_r	knee_angle_r_beta	ankle_angle_r	subtalar_angle_r	mtp_angle_r	hip_flexion_l	hip_adduction_l	hip_rotation_l	knee_angle_l	knee_angle_l_beta	ankle_angle_l	subtalar_angle_l	mtp_angle_l	L5_S1_Flex_Ext	L5_S1_Lat_Bending	L5_S1_axial_rotation	L4_L5_Flex_Ext	L4_L5_Lat_Bending	L4_L5_axial_rotation	L3_L4_Flex_Ext	L3_L4_Lat_Bending	L3_L4_axial_rotation	L2_L3_Flex_Ext	L2_L3_Lat_Bending	L2_L3_axial_rotation	L1_L2_Flex_Ext	L1_L2_Lat_Bending	L1_L2_axial_rotation	L1_T12_Flex_Ext	L1_T12_Lat_Bending	L1_T12_axial_rotation	Abs_r3	Abs_r2	Abs_r1	Abs_t1	Abs_t2	neck_flexion	neck_bending	neck_rotation	arm_flex_r	arm_add_r	arm_rot_r	elbow_flex_r	pro_sup_r	wrist_flex_r	wrist_dev_r	arm_flex_l	arm_add_l	arm_rot_l	elbow_flex_l	pro_sup_l	wrist_flex_l	wrist_dev_l
      0.00800000	    -52.52007910	     -4.09696094	     -6.63688876	     -0.24647487	      1.01297716	      0.02531294	    123.30881663	     -3.04248309	     -3.33471164	    119.51031566	      2.08584850	     11.75419697	      1.33793614	      0.00000000	     84.93191882	    -12.39976955	      1.04537438	     44.70833626	      0.78030767	      5.05504752	      3.37491114	      0.00000000	     -0.07631206	      0.68602261	      1.07913774	     -0.14171914	      0.91241007	      1.14658384	     -0.12537309	      1.66799537	      1.14658384	     -0.08721706	      1.66799537	      0.94424552	     -0.07086338	      1.39893730	      0.87679941	     -0.04360471	      1.06264902	      0.80935330	     -0.54508945	      7.76042495	      6.00184035	      0.00000000	      0.00000000	      0.00000000	      0.00000000	      0.00000001	     75.20326736	    -10.56393642	     22.68951013	     27.97163561	     65.67169345	      0.00000000	      4.46566063	     68.82607563	    -12.79896476	     10.90906774	     32.99721159	     65.41817225	      0.00000000	      4.46566063
      0.01700000	    -52.68873933	     -4.88609667	     -6.12642126	     -0.24697291	      1.01370910	      0.02612964	    125.43839558	     -3.30313503	     -3.48018172	    118.92087655	      2.07556085	     10.53706906	      0.97298250	      0.00000000	     84.13740371	    -11.99255023	      2.42919080	     45.18169499	      0.78856934	      6.16133870	      4.03224267	      0.00000000	     -0.07551539	      0.78060662	      1.00799344	     -0.14023962	      1.03820680	      1.07099303	     -0.12406423	      1.89796693	      1.07099303	     -0.08630653	      1.89796693	      0.88199426	     -0.07012359	      1.59181302	      0.81899467	     -0.04314949	      1.20915965	      0.75599508	     -0.53939885	      8.83037819	      5.60615714	      0.00000000	      0.00000000	      0.00000000	      0.00000000	      0.00000001	     75.47682464	    -10.34982933	     22.28732862	     27.59629178	     65.44239148	      0.00000000	      4.49206781	     68.50171963	    -13.00800919	     10.40747395	     33.70179791	     65.29559662	      0.00000000	      4.49206781
      0.02500000	    -52.76045066	     -4.86351387	     -6.00917195	     -0.24717517	      1.01412377	      0.02645563	    125.90884691	     -3.18490992	     -3.44668567	    118.34840770	      2.06556938	     10.38273985	      0.69670475	      0.00000000	     84.13639325	    -11.85737421	      2.63633190	     45.91947345	      0.80144600	      6.18090180	      3.64354108	      0.00000000	     -0.07476966	      0.77002173	      0.99282559	     -0.13885473	      1.02412890	      1.05487719	     -0.12283907	      1.87223083	      1.05487719	     -0.08545424	      1.87223083	      0.86872240	     -0.06943110	      1.57022830	      0.80667080	     -0.04272338	      1.19276365	      0.74461920	     -0.53407218	      8.71063978	      5.52179811	      0.00000000	      0.00000000	      0.00000000	      0.00000000	      0.00000001	     75.36666887	    -10.40539273	     22.22015061	     27.79848579	     64.73317101	      0.00000000	      4.52752943	     68.51412891	    -12.99023649	     10.32946331	     33.79426846	     64.62098562	      0.00000000	      4.52752943
      0.03300000	    -52.82990395	     -4.80751917	     -5.78751736	     -0.24745171	      1.01464183	      0.02669277	    126.35880590	     -3.09874595	     -3.33795380	    117.55908153	      2.05179304	     10.23078544	      0.41573785	      0.00000000	     84.17914002	    -11.64268872	      2.84766421	     46.85567809	      0.81778586	      6.22571610	      3.52764512	      0.00000000	     -0.07534148	      0.75392021	      0.95558185	     -0.13991666	      1.00271388	      1.01530572	     -0.12377851	      1.83308159	      1.01530572	     -0.08610778	      1.83308159	      0.83613412	     -0.06996210	      1.53739409	      0.77641026	     -0.04305012	      1.16782240	      0.71668639	     -0.53815665	      8.52849617	      5.31465959	      0.00000000	      0.00000000	      0.00000000	      0.00000000	      0.00000001	     75.33228201	    -10.38952856	     22.16152320	     27.80220947	     64.63723780	      0.00000000	      4.53444585	     68.61557756	    -12.97560679	     10.33867403	     33.74113280	     64.56210554	      0.00000000	      4.53444585
      0.04200000	    -52.92056104	     -4.74215939	     -5.57255910	     -0.24784724	      1.01519355	      0.02693881	    126.78328338	     -2.98652530	     -3.26713944	    116.54760072	      2.03413937	     10.09323409	     -0.03079209	      0.00000000	     84.34975314	    -11.43892533	      3.06243701	     48.11906670	      0.83983615	      6.21143472	      3.26539433	      0.00000000	     -0.07461901	      0.73550112	      0.91717435	     -0.13857497	      0.97821650	      0.97449774	     -0.12259157	      1.78829743	      0.97449774	     -0.08528207	      1.78829743	      0.80252755	     -0.06929121	      1.49983389	      0.74520416	     -0.04263730	      1.13929124	      0.68788076	     -0.53299614	      8.32013582	      5.10104856	      0.00000000	      0.00000000	      0.00000000	      0.00000000	      0.00000001	     75.27958910	    -10.38736227	     22.07503526	     27.87630753	     64.53128794	      0.00000000	      4.54141018	     68.72382565	    -12.98439950	     10.37948246	     33.72658278	     64.50485072	      0.00000000	      4.54141018
      0.05000000	    -53.02747881	     -4.73309211	     -5.43521493	     -0.24832469	      1.01589643	      0.02724955	    127.14322167	     -2.81418195	     -3.61285536	    115.23786421	      2.01128015	      9.02203825	     -2.51850080	      0.00000000	     84.64311213	    -11.27124914	      3.30476568	     49.61804838	      0.86599831	      5.64671571	      1.97038434	      0.00000000	     -0.07499044	      0.72515746	      0.89594341	     -0.13926475	      0.96445942	      0.95193987	     -0.12320180	      1.76314785	      0.95193987	     -0.08570658	      1.76314785	      0.78395048	     -0.06963613	      1.47874109	      0.72795402	     -0.04284954	      1.12326891	      0.67195755	     -0.53564924	      8.20312623	      4.98296844	      0.00000000	      0.00000000	      0.00000000	      0.00000000	      0.00000001	     75.15433375	    -10.30200585	     21.37600728	     28.01607325	     64.17239067	      0.00000000	      4.57559243	     68.88787093	    -13.05019266	     10.84460913	     33.66506065	     64.53725881	      0.00000000	      4.57559243
      0.05800000	    -53.10524966	     -4.63861113	     -5.15247277	     -0.24880771	      1.01643635	      0.02734755	    127.36951480	     -2.71557446	     -3.45987114	    113.84695264	      1.98700417	      9.17205486	     -2.78587739	      0.00000000	     84.99720868	    -11.06215147	      3.32401761	     51.40362896	      0.89716257	      5.58440322	      1.73118773	      0.00000000	     -0.07564032	      0.70238575	      0.84062605	     -0.14047164	      0.93417305	      0.89316517	     -0.12426949	      1.70778071	      0.89316517	     -0.08644933	      1.70778071	      0.73554779	     -0.07023960	      1.43230502	      0.68300866	     -0.04322088	      1.08799553	      0.63046953	     -0.54029127	      7.94552809	      4.67530988	      0.00000000	      0.00000000	      0.00000000	      0.00000000	      0.00000001	     75.09708364	    -10.29456414	     21.29292539	     28.14579225	     64.07299641	      0.00000000	      4.58207962	     68.97463377	    -13.07518003	     10.86818613	     33.74631328	     64.47862789	      0.00000000	      4.58207962
      0.06700000	    -53.18436643	     -4.55006426	     -4.89906378	     -0.24932543	      1.01692718	      0.02740897	    127.46579836	     -2.60390912	     -3.35242788	    112.28425267	      1.95972991	      9.35022478	     -3.20527208	      0.00000000	     85.46414694	    -10.90741365	      3.29072879	     53.41986865	      0.93235259	      5.38601336	      1.32190998	      0.00000000	     -0.07489160	      0.68224735	      0.78765684	     -0.13908118	      0.90738898	      0.83688539	     -0.12303940	      1.65881621	      0.83688539	     -0.08559361	      1.65881621	      0.68919973	     -0.06954434	      1.39123880	      0.63997118	     -0.04279306	      1.05680115	      0.59074263	     -0.53494319	      7.71771849	      4.38071104	      0.00000000	      0.00000000	      0.00000000	      0.00000000	      0.00000001	     75.03571019	    -10.26072625	     21.19179143	     28.29205248	     63.97315174	      0.00000000	      4.58816555	     69.04703344	    -13.11824015	     10.90372175	     33.84043251	     64.42415883	      0.00000000	      4.58816555
      0.07500000	    -53.24527822	     -4.47035905	     -4.64496840	     -0.24991672	      1.01733455	      0.02747459	    127.42156569	     -2.48620099	     -3.26555226	    110.57875835	      1.92996342	      9.57104919	     -3.71683099	      0.00000000	     86.03655257	    -10.78223188	      3.19437070	     55.65586443	      0.97137808	      5.07711437	      0.77150188	      0.00000000	     -0.07537864	      0.66336134	      0.73474040	     -0.13998568	      0.88227058	      0.78066167	     -0.12383957	      1.61289676	      0.78066167	     -0.08615025	      1.61289676	      0.64289785	     -0.06999661	      1.35272644	      0.59697657	     -0.04307136	      1.02754671	      0.55105530	     -0.53842210	      7.50407613	      4.08640568	      0.00000000	      0.00000000	      0.00000000	      0.00000000	      0.00000001	     74.98053421	    -10.21818197	     21.06669086	     28.43879173	     63.87981262	      0.00000000	      4.59379342	     69.09816053	    -13.16619525	     10.95183462	     33.95941019	     64.38249321	      0.00000000	      4.59379342
      0.08300000	    -53.35108171	     -4.54979075	     -4.71138809	     -0.25064828	      1.01791846	      0.02777659	    127.13093126	     -2.21164483	     -3.63255003	    108.56324333	      1.89478604	      9.68617217	     -4.93138962	      0.00000000	     86.79217209	    -11.00958745	      3.04489644	     58.02021282	      1.01264375	      4.01234255	     -0.98758974	      0.00000000	     -0.07582156	      0.66660520	      0.74265470	     -0.14080823	      0.88658491	      0.78907062	     -0.12456725	      1.62078387	      0.78907062	     -0.08665647	      1.62078387	      0.64982286	     -0.07040790	      1.35934131	      0.60340695	     -0.04332444	      1.03257145	      0.55699103	     -0.54158585	      7.54077129	      4.13042266	      0.00000000	      0.00000000	      0.00000000	      0.00000000	      0.00000001	     74.95734948	    -10.15400491	     20.59344757	     28.60517397	     63.67706660	      0.00000000	      4.60869273	     69.14914345	    -13.20068107	     11.14857014	     34.18146459	     64.37040440	      0.00000000	      4.60869273
      0.09200000	    -53.39917755	     -4.43600931	     -4.29555067	     -0.25136770	      1.01811269	      0.02746529	    126.83906885	     -2.23763409	     -3.39105518	    106.67756812	      1.86187480	      9.80421089	     -5.51621570	      0.00000000	     87.49847913	    -10.67862539	      2.91729471	     60.40832556	      1.05432418	      3.30082009	     -2.47423814	      0.00000000	     -0.07388663	      0.64553134	      0.65745388	     -0.13721486	      0.85855669	      0.69854474	     -0.12138835	      1.56954491	      0.69854474	     -0.08444503	      1.56954491	      0.57527214	     -0.06861113	      1.31636752	      0.53418127	     -0.04221882	      0.99992805	      0.49309041	     -0.52776482	      7.30237967	      3.65656122	      0.00000000	      0.00000000	      0.00000000	      0.00000000	      0.00000001	     74.86846583	    -10.00064694	     19.92823906	     28.79468645	     63.43775013	      0.00000000	      4.63433038	     69.23151266	    -13.28864159	     11.25772727	     34.31157701	     64.41270010	      0.00000000	      4.63433038
